<svg width="193" height="188" viewBox="0 0 193 188" fill="none" xmlns="http://www.w3.org/2000/svg">
<path opacity="0.3" d="M193 94C193 145.915 149.795 188 96.5 188C43.2045 188 0 145.915 0 94C0 42.0852 43.2045 0 96.5 0C149.795 0 193 42.0852 193 94ZM30.0903 94C30.0903 129.727 59.823 158.689 96.5 158.689C133.177 158.689 162.91 129.727 162.91 94C162.91 58.2731 133.177 29.3108 96.5 29.3108C59.823 29.3108 30.0903 58.2731 30.0903 94Z" fill="#25C8A8"/>
<path d="M177.955 94C186.264 94 193.125 87.2197 191.767 79.0223C190.576 71.8334 188.529 64.7868 185.654 58.0278C180.805 46.6231 173.697 36.2607 164.736 27.532C155.775 18.8033 145.137 11.8793 133.429 7.15532C126.248 4.25784 118.75 2.22285 111.102 1.08238C103.097 -0.111349 96.5 6.56144 96.5 14.6554C96.5 22.7493 103.136 29.1523 111.043 30.8809C114.75 31.6913 118.387 32.812 121.914 34.235C129.971 37.4859 137.292 42.2509 143.459 48.2578C149.625 54.2648 154.517 61.3961 157.855 69.2445C159.216 72.4458 160.308 75.7408 161.123 79.097C163.086 87.1712 169.646 94 177.955 94Z" fill="#25C8A8"/>
</svg>
